<?xml version="1.0" standalone="no"?>
<svg xmlns:xlink="http://www.w3.org/1999/xlink" id="wave" style="transform:rotate(0deg); transition: 0.3s" viewBox="0 0 1440 440" version="1.1" xmlns="http://www.w3.org/2000/svg"><defs><linearGradient id="sw-gradient-0" x1="0" x2="0" y1="1" y2="0"><stop stop-color="rgba(69.15, 150.092, 232.602, 1)" offset="0%"/><stop stop-color="rgba(6.346, 241.709, 224.964, 1)" offset="100%"/></linearGradient></defs><path style="transform:translate(0, 0px); opacity:1" fill="url(#sw-gradient-0)" d="M0,176L17.1,168.7C34.3,161,69,147,103,139.3C137.1,132,171,132,206,176C240,220,274,308,309,315.3C342.9,323,377,249,411,212.7C445.7,176,480,176,514,205.3C548.6,235,583,293,617,293.3C651.4,293,686,235,720,205.3C754.3,176,789,176,823,154C857.1,132,891,88,926,117.3C960,147,994,249,1029,278.7C1062.9,308,1097,264,1131,271.3C1165.7,279,1200,337,1234,315.3C1268.6,293,1303,191,1337,154C1371.4,117,1406,147,1440,168.7C1474.3,191,1509,205,1543,190.7C1577.1,176,1611,132,1646,110C1680,88,1714,88,1749,124.7C1782.9,161,1817,235,1851,234.7C1885.7,235,1920,161,1954,161.3C1988.6,161,2023,235,2057,249.3C2091.4,264,2126,220,2160,234.7C2194.3,249,2229,323,2263,330C2297.1,337,2331,279,2366,227.3C2400,176,2434,132,2451,110L2468.6,88L2468.6,440L2451.4,440C2434.3,440,2400,440,2366,440C2331.4,440,2297,440,2263,440C2228.6,440,2194,440,2160,440C2125.7,440,2091,440,2057,440C2022.9,440,1989,440,1954,440C1920,440,1886,440,1851,440C1817.1,440,1783,440,1749,440C1714.3,440,1680,440,1646,440C1611.4,440,1577,440,1543,440C1508.6,440,1474,440,1440,440C1405.7,440,1371,440,1337,440C1302.9,440,1269,440,1234,440C1200,440,1166,440,1131,440C1097.1,440,1063,440,1029,440C994.3,440,960,440,926,440C891.4,440,857,440,823,440C788.6,440,754,440,720,440C685.7,440,651,440,617,440C582.9,440,549,440,514,440C480,440,446,440,411,440C377.1,440,343,440,309,440C274.3,440,240,440,206,440C171.4,440,137,440,103,440C68.6,440,34,440,17,440L0,440Z"/></svg>